<?xml version="1.0" encoding="UTF-8"?>
<svg id="Layer_1" data-name="Layer 1" xmlns="http://www.w3.org/2000/svg" viewBox="0 0 144.29 258.76">
  <defs>
    <style>
      .cls-1 {
        fill: #fff;
      }
    </style>
  </defs>
  <path class="cls-1" d="M91.01,247.12h0c-13.74-5.91,0,0-13.74-5.91v-86.73h0l13.74,6.66v85.98Z"/>
  <path class="cls-1" d="M116.93,258.47h0c-13.74-5.87,0,0-13.74-5.87v-86.19h0l13.74,6.62v85.45Z"/>
  <path class="cls-1" d="M39.67,166.12h0c-13.74,5.91,0,0-13.74,5.91v86.73h0l13.74-6.66v-85.98Z"/>
  <path class="cls-1" d="M65.63,154.48h0c-13.83,5.91,0,0-13.83,5.91v86.73h0l13.83-6.66v-85.98Z"/>
  <path class="cls-1" d="M144.29,149.1v109.66h-14.98v-101.28l-62.94-28.8,5.77-12.6c15.01,6.87,30.01,13.73,45.02,20.6,7.14,3.27,14.27,6.53,21.41,9.8,1.91.87,3.81,1.75,5.72,2.62Z"/>
  <path class="cls-1" d="M0,149.1v109.66h14.98v-101.28l62.94-28.8-5.77-12.6c-15.31,7.01-30.61,14.01-45.92,21.02-4.62,2.12-15.88,7.27-20.51,9.38-.42.19-5.3,2.43-5.72,2.62Z"/>
  <path class="cls-1" d="M91.28,133.58h0c-13.74-2.64,0,0-13.74-2.64v-38.7h0c13.74,7.64,0,0,13.74,7.64v33.7Z"/>
  <path class="cls-1" d="M52.4,133.58l13.74-2.64v-38.7h0c-13.74,7.64,0,0-13.74,7.64v33.7Z"/>
  <path class="cls-1" d="M91.31,74.01v-20.81c-.32-1.75-1.33-5.9-4.85-9.64-3.21-3.41-6.78-4.63-8.23-5.11-1.54-.51-6.8-2.15-12.96,0-4.71,1.65-7.51,4.66-8.62,6-2.74,3.31-3.71,6.69-4.09,8.43v21.13c-3.46,1.61-7.74,4.12-11.9,8.06-10.58,10.02-13.19,22.51-13.95,27.51-.16,9.17-.33,18.34-.49,27.51,4.52-2.07,9.05-4.14,13.57-6.21v-17.96c.3-2.89,1.46-10.36,7.34-17.25,1.32-1.55,5.62-6.28,13.02-9.04,8.74-3.26,16.41-1.76,19.42-.98,3.94,1.01,11.09,3.63,16.84,10.53,5.58,6.71,6.81,13.85,7.15,16.74.05,5.87.09,11.74.14,17.61,4.48,2.05,8.97,4.1,13.45,6.16.07-8.95.13-17.89.2-26.84-.88-5.26-3.73-17.64-14.3-27.7-4.09-3.89-8.29-6.45-11.74-8.13Z"/>
  <rect class="cls-1" x="65.82" width="11.49" height="42.77"/>
</svg>